<?xml version="1.0" encoding="UTF-8" standalone="no"?>
<!-- Created with Inkscape (http://www.inkscape.org/) -->
<svg
   xmlns:svg="http://www.w3.org/2000/svg"
   xmlns="http://www.w3.org/2000/svg"
   version="1.0"
   width="105.00781"
   height="63.389801"
   id="svg2">
  <defs
     id="defs4" />
  <g
     transform="translate(-106.99219,-78.502808)"
     id="layer1">
    <path
       d="M 122.01511,141.88886 L 121.99802,108.50281 L 107.01562,108.50281 L 106.99219,107.50727 L 106.99219,107.50727 L 125,107.50671 L 125,134.50671 C 125,134.50671 153.54687,78.502809 153.54687,78.502809 L 211.98438,78.502808 L 212,79.506714 L 155.01953,79.506714 L 123.17905,141.89261 L 122.01511,141.88886 z"
       id="path2926"
       style="fill:#000000;fill-opacity:1;fill-rule:evenodd;stroke:none;stroke-width:0.75;stroke-linecap:butt;stroke-linejoin:miter;stroke-miterlimit:4;stroke-dasharray:none;stroke-opacity:1" />
    <path
       d="M 116.58984,95.925659 L 115.68066,99.036011 C 116.53287,97.764531 117.18571,96.928269 117.63916,96.527222 C 118.09261,96.126186 118.52897,95.925665 118.94824,95.925659 C 119.1761,95.925665 119.36409,96.000861 119.51221,96.151245 C 119.66031,96.301642 119.73437,96.497605 119.73438,96.739136 C 119.73437,97.012578 119.66829,97.377161 119.53613,97.832886 L 118.70215,100.71082 C 118.60644,101.0435 118.55859,101.2463 118.55859,101.31921 C 118.55859,101.38302 118.57682,101.43656 118.61328,101.47986 C 118.64973,101.52315 118.68847,101.5448 118.72949,101.5448 C 118.78417,101.5448 118.85026,101.51518 118.92773,101.45593 C 119.16927,101.26453 119.43359,100.97286 119.7207,100.58093 L 119.93262,100.71082 C 119.50878,101.31694 119.10774,101.74988 118.72949,102.00964 C 118.46516,102.18738 118.22819,102.27624 118.01855,102.27625 C 117.84993,102.27624 117.71549,102.22498 117.61523,102.12244 C 117.51497,102.0199 117.46484,101.88204 117.46484,101.70886 C 117.46484,101.49011 117.54231,101.11414 117.69727,100.58093 L 118.49023,97.832886 C 118.59049,97.491093 118.64062,97.224492 118.64063,97.033081 C 118.64062,96.94194 118.611,96.867884 118.55176,96.810913 C 118.49251,96.753952 118.41959,96.725469 118.33301,96.725464 C 118.2054,96.725469 118.05273,96.780157 117.875,96.889526 C 117.53776,97.09461 117.18685,97.432988 116.82227,97.904663 C 116.45768,98.376347 116.07259,98.979048 115.66699,99.712769 C 115.4528,100.10014 115.27506,100.52397 115.13379,100.98425 L 114.79199,102.11218 L 113.7666,102.11218 L 115.01074,97.832886 C 115.15657,97.317917 115.22949,97.008021 115.22949,96.903198 C 115.22949,96.802943 115.18961,96.715215 115.10986,96.640015 C 115.03011,96.564825 114.93099,96.527227 114.8125,96.527222 C 114.75781,96.527227 114.66211,96.536342 114.52539,96.554565 L 114.26563,96.595581 L 114.22461,96.349487 L 116.58984,95.925659 z"
       id="text2928" />
  </g>
</svg>
